<svg xmlns="http://www.w3.org/2000/svg" xmlns:xlink="http://www.w3.org/1999/xlink" width="1366" zoomAndPan="magnify" viewBox="0 0 1024.5 576" height="768" preserveAspectRatio="xMidYMid meet" version="1.0"><defs><clipPath id="bd382a4655"><path d="M 809.925781 163.375 L 831 163.375 L 831 201 L 809.925781 201 Z M 809.925781 163.375 " clip-rule="nonzero"/></clipPath><clipPath id="07441133c6"><path d="M 825.925781 174.464844 L 845.910156 174.464844 L 845.910156 211.804688 L 825.925781 211.804688 Z M 825.925781 174.464844 " clip-rule="nonzero"/></clipPath></defs><g clip-path="url(#bd382a4655)"><path fill="#2d8681" d="M 826.917969 195.496094 C 826.917969 195.496094 826.882812 195.429688 826.820312 195.304688 C 826.757812 195.183594 826.671875 195.011719 826.578125 194.804688 C 826.550781 194.753906 826.527344 194.699219 826.503906 194.640625 C 826.480469 194.582031 826.453125 194.523438 826.429688 194.464844 C 826.378906 194.34375 826.324219 194.214844 826.273438 194.085938 C 826.246094 194.023438 826.222656 193.957031 826.195312 193.890625 C 826.171875 193.820312 826.148438 193.75 826.121094 193.683594 C 826.074219 193.542969 826.023438 193.402344 825.980469 193.265625 C 825.957031 193.195312 825.933594 193.125 825.914062 193.058594 C 825.890625 192.984375 825.871094 192.914062 825.851562 192.847656 C 825.8125 192.707031 825.777344 192.570312 825.742188 192.441406 C 825.726562 192.378906 825.710938 192.3125 825.695312 192.25 C 825.679688 192.1875 825.667969 192.125 825.652344 192.066406 C 825.628906 191.945312 825.605469 191.832031 825.585938 191.726562 C 825.566406 191.625 825.546875 191.53125 825.53125 191.445312 C 825.515625 191.363281 825.507812 191.285156 825.496094 191.226562 C 825.480469 191.105469 825.46875 191.035156 825.46875 191.035156 C 825.378906 190.878906 825.289062 190.734375 825.207031 190.582031 C 825.164062 190.507812 825.121094 190.433594 825.082031 190.363281 C 825.039062 190.289062 824.996094 190.222656 824.957031 190.148438 C 824.957031 190.148438 824.953125 190.175781 824.945312 190.226562 C 824.933594 190.277344 824.921875 190.347656 824.910156 190.433594 C 824.886719 190.601562 824.855469 190.828125 824.828125 191.0625 C 824.8125 191.179688 824.800781 191.296875 824.789062 191.40625 C 824.78125 191.515625 824.773438 191.617188 824.769531 191.703125 C 824.757812 191.878906 824.75 192 824.75 192 C 824.75 192 824.722656 191.832031 824.679688 191.589844 C 824.664062 191.46875 824.644531 191.320312 824.628906 191.167969 C 824.613281 191.015625 824.59375 190.855469 824.582031 190.695312 C 824.570312 190.53125 824.5625 190.371094 824.554688 190.222656 C 824.550781 190.148438 824.550781 190.074219 824.546875 190.007812 C 824.546875 189.972656 824.542969 189.941406 824.542969 189.910156 C 824.542969 189.875 824.542969 189.84375 824.542969 189.816406 C 824.542969 189.574219 824.550781 189.421875 824.550781 189.421875 C 824.511719 189.359375 824.476562 189.296875 824.441406 189.238281 C 824.40625 189.179688 824.371094 189.117188 824.339844 189.058594 C 824.273438 188.941406 824.203125 188.835938 824.132812 188.730469 C 824.070312 188.621094 824.003906 188.523438 823.9375 188.429688 C 823.90625 188.382812 823.871094 188.339844 823.839844 188.296875 C 823.808594 188.25 823.773438 188.207031 823.742188 188.167969 C 823.742188 188.167969 823.714844 188.238281 823.667969 188.359375 C 823.644531 188.421875 823.613281 188.496094 823.585938 188.582031 C 823.554688 188.667969 823.519531 188.765625 823.484375 188.871094 C 823.414062 189.085938 823.335938 189.339844 823.253906 189.617188 C 823.179688 189.890625 823.105469 190.191406 823.039062 190.496094 C 823.023438 190.574219 823.007812 190.648438 822.992188 190.726562 C 822.976562 190.800781 822.964844 190.878906 822.949219 190.953125 C 822.921875 191.101562 822.898438 191.253906 822.875 191.398438 C 822.851562 191.546875 822.832031 191.6875 822.8125 191.828125 C 822.792969 191.960938 822.78125 192.089844 822.769531 192.207031 C 822.746094 192.445312 822.730469 192.648438 822.71875 192.789062 C 822.710938 192.933594 822.703125 193.011719 822.703125 193.011719 C 822.703125 193.011719 822.6875 192.917969 822.660156 192.746094 C 822.648438 192.664062 822.632812 192.5625 822.613281 192.445312 C 822.605469 192.386719 822.597656 192.324219 822.589844 192.261719 C 822.582031 192.195312 822.570312 192.128906 822.5625 192.054688 C 822.546875 191.910156 822.535156 191.757812 822.519531 191.59375 C 822.515625 191.515625 822.507812 191.433594 822.5 191.347656 C 822.496094 191.304688 822.496094 191.265625 822.492188 191.222656 C 822.488281 191.179688 822.488281 191.132812 822.488281 191.089844 C 822.480469 190.914062 822.476562 190.734375 822.472656 190.554688 C 822.472656 190.507812 822.472656 190.464844 822.472656 190.417969 C 822.46875 190.375 822.46875 190.328125 822.472656 190.28125 C 822.476562 190.191406 822.476562 190.097656 822.480469 190.007812 C 822.488281 189.824219 822.496094 189.644531 822.507812 189.46875 C 822.523438 189.292969 822.539062 189.121094 822.558594 188.953125 C 822.589844 188.628906 822.644531 188.320312 822.691406 188.070312 C 822.734375 187.816406 822.785156 187.605469 822.820312 187.460938 C 822.855469 187.316406 822.875 187.234375 822.875 187.234375 C 822.84375 187.199219 822.804688 187.164062 822.773438 187.125 C 822.738281 187.085938 822.703125 187.046875 822.667969 187.007812 C 822.597656 186.925781 822.523438 186.84375 822.441406 186.757812 C 822.367188 186.667969 822.292969 186.574219 822.210938 186.480469 C 822.171875 186.433594 822.132812 186.386719 822.089844 186.335938 C 822.046875 186.289062 822.011719 186.234375 821.96875 186.183594 C 821.890625 186.078125 821.804688 185.972656 821.71875 185.863281 C 821.640625 185.75 821.554688 185.632812 821.46875 185.515625 C 821.449219 185.484375 821.425781 185.453125 821.402344 185.425781 C 821.382812 185.394531 821.363281 185.363281 821.34375 185.332031 C 821.300781 185.269531 821.257812 185.203125 821.21875 185.140625 C 821.175781 185.074219 821.132812 185.011719 821.085938 184.945312 C 821.046875 184.878906 821.007812 184.808594 820.964844 184.742188 C 820.632812 184.191406 820.304688 183.574219 820.019531 182.886719 C 819.734375 182.199219 819.488281 181.445312 819.304688 180.636719 C 819.304688 180.636719 819.179688 180.707031 818.992188 180.816406 C 818.902344 180.875 818.792969 180.941406 818.675781 181.011719 C 818.617188 181.050781 818.554688 181.089844 818.496094 181.128906 C 818.4375 181.167969 818.375 181.207031 818.316406 181.246094 C 818.074219 181.410156 817.832031 181.578125 817.652344 181.710938 C 817.5625 181.777344 817.488281 181.835938 817.433594 181.875 C 817.410156 181.894531 817.390625 181.910156 817.375 181.921875 C 817.363281 181.929688 817.355469 181.9375 817.355469 181.9375 C 818.03125 181.269531 818.375 180.515625 818.59375 179.761719 C 818.621094 179.667969 818.648438 179.574219 818.667969 179.480469 C 818.679688 179.433594 818.691406 179.386719 818.699219 179.339844 C 818.710938 179.292969 818.722656 179.246094 818.730469 179.199219 C 818.753906 179.105469 818.769531 179.011719 818.785156 178.921875 C 818.792969 178.875 818.800781 178.828125 818.804688 178.78125 C 818.8125 178.738281 818.820312 178.691406 818.828125 178.644531 C 818.84375 178.554688 818.855469 178.464844 818.867188 178.375 C 818.871094 178.332031 818.875 178.285156 818.878906 178.242188 C 818.882812 178.199219 818.890625 178.15625 818.894531 178.113281 C 818.90625 178.023438 818.914062 177.941406 818.917969 177.855469 C 818.925781 177.773438 818.929688 177.691406 818.9375 177.609375 L 818.9375 177.15625 C 818.9375 177.125 818.9375 177.09375 818.941406 177.066406 L 818.945312 176.882812 L 818.953125 176.699219 C 818.953125 176.636719 818.957031 176.578125 818.960938 176.515625 C 818.96875 176.394531 818.980469 176.269531 818.988281 176.148438 C 819.125 174.457031 819.582031 172.753906 820.253906 171.210938 C 820.59375 170.4375 820.984375 169.707031 821.402344 169.03125 C 821.824219 168.359375 822.273438 167.742188 822.722656 167.1875 C 823.171875 166.636719 823.617188 166.140625 824.035156 165.71875 C 824.085938 165.667969 824.136719 165.613281 824.1875 165.5625 C 824.238281 165.507812 824.292969 165.460938 824.339844 165.414062 C 824.441406 165.316406 824.539062 165.21875 824.632812 165.128906 C 824.675781 165.082031 824.726562 165.039062 824.769531 164.996094 C 824.816406 164.953125 824.863281 164.910156 824.90625 164.871094 C 824.992188 164.785156 825.078125 164.707031 825.15625 164.628906 C 825.320312 164.484375 825.464844 164.347656 825.589844 164.226562 C 825.621094 164.195312 825.652344 164.164062 825.683594 164.136719 C 825.710938 164.109375 825.738281 164.082031 825.765625 164.054688 C 825.820312 164.003906 825.871094 163.953125 825.914062 163.910156 C 826.085938 163.726562 826.164062 163.597656 826.140625 163.53125 C 826.09375 163.421875 825.839844 163.375 825.390625 163.386719 C 825.28125 163.390625 825.160156 163.402344 825.023438 163.417969 C 824.890625 163.433594 824.746094 163.449219 824.589844 163.476562 C 824.433594 163.503906 824.269531 163.535156 824.09375 163.574219 C 823.914062 163.609375 823.734375 163.660156 823.539062 163.710938 C 822.761719 163.921875 821.84375 164.25 820.839844 164.742188 C 819.839844 165.234375 818.757812 165.886719 817.679688 166.734375 C 817.679688 166.734375 817.652344 166.765625 817.59375 166.820312 C 817.539062 166.878906 817.457031 166.964844 817.355469 167.082031 C 817.257812 167.199219 817.136719 167.347656 817 167.527344 C 816.933594 167.613281 816.867188 167.714844 816.792969 167.820312 C 816.722656 167.925781 816.648438 168.039062 816.574219 168.160156 C 816.554688 168.191406 816.535156 168.222656 816.515625 168.253906 C 816.496094 168.285156 816.480469 168.320312 816.460938 168.351562 C 816.421875 168.417969 816.386719 168.484375 816.347656 168.554688 C 816.308594 168.625 816.273438 168.695312 816.234375 168.769531 C 816.195312 168.839844 816.15625 168.914062 816.117188 168.996094 C 816.046875 169.152344 815.972656 169.316406 815.898438 169.484375 C 815.882812 169.527344 815.863281 169.570312 815.84375 169.617188 C 815.828125 169.660156 815.8125 169.703125 815.792969 169.75 C 815.761719 169.839844 815.726562 169.933594 815.695312 170.027344 C 815.433594 170.777344 815.226562 171.65625 815.160156 172.625 C 815.160156 172.625 815.140625 172.59375 815.109375 172.535156 C 815.078125 172.476562 815.035156 172.394531 814.980469 172.292969 C 814.875 172.09375 814.738281 171.820312 814.605469 171.542969 C 814.472656 171.265625 814.347656 170.980469 814.257812 170.765625 C 814.164062 170.550781 814.105469 170.402344 814.105469 170.402344 C 814.027344 170.511719 813.949219 170.621094 813.871094 170.730469 C 813.824219 170.839844 813.777344 170.949219 813.730469 171.0625 C 813.6875 171.179688 813.648438 171.296875 813.605469 171.414062 C 813.5625 171.53125 813.523438 171.648438 813.480469 171.769531 C 813.441406 171.890625 813.410156 172.011719 813.375 172.132812 C 813.339844 172.257812 813.304688 172.378906 813.273438 172.503906 C 813.238281 172.625 813.214844 172.75 813.1875 172.875 C 813.160156 173 813.136719 173.125 813.113281 173.246094 L 813.09375 173.339844 L 813.082031 173.433594 C 813.074219 173.496094 813.066406 173.558594 813.054688 173.621094 C 812.988281 174.113281 812.96875 174.597656 812.988281 175.042969 C 813 175.269531 813.023438 175.480469 813.058594 175.683594 C 813.070312 175.785156 813.097656 175.886719 813.121094 175.980469 C 813.144531 176.078125 813.171875 176.167969 813.199219 176.257812 C 813.199219 176.257812 813.113281 176.128906 812.984375 175.933594 C 812.855469 175.738281 812.695312 175.472656 812.53125 175.199219 C 812.453125 175.0625 812.375 174.925781 812.300781 174.792969 C 812.226562 174.664062 812.160156 174.542969 812.105469 174.433594 C 811.996094 174.222656 811.921875 174.078125 811.921875 174.078125 C 811.464844 175.066406 811.078125 176.101562 810.777344 177.164062 C 810.476562 178.230469 810.253906 179.316406 810.117188 180.402344 C 809.984375 181.488281 809.929688 182.574219 809.945312 183.640625 C 809.96875 184.171875 809.980469 184.699219 810.039062 185.214844 C 810.050781 185.347656 810.0625 185.476562 810.074219 185.601562 C 810.082031 185.667969 810.085938 185.730469 810.09375 185.796875 C 810.105469 185.859375 810.113281 185.921875 810.121094 185.984375 C 810.15625 186.238281 810.191406 186.488281 810.230469 186.738281 C 810.230469 186.738281 810.246094 186.816406 810.289062 186.949219 C 810.332031 187.082031 810.394531 187.277344 810.480469 187.511719 C 810.5 187.574219 810.523438 187.632812 810.542969 187.699219 C 810.566406 187.761719 810.589844 187.832031 810.621094 187.898438 C 810.675781 188.035156 810.738281 188.179688 810.804688 188.332031 C 810.871094 188.484375 810.941406 188.644531 811.019531 188.804688 C 811.101562 188.96875 811.1875 189.132812 811.28125 189.300781 C 811.324219 189.382812 811.371094 189.46875 811.421875 189.554688 C 811.445312 189.597656 811.46875 189.636719 811.492188 189.679688 C 811.515625 189.722656 811.542969 189.765625 811.570312 189.808594 C 811.675781 189.976562 811.789062 190.144531 811.902344 190.308594 C 811.957031 190.390625 812.015625 190.472656 812.074219 190.554688 C 812.136719 190.636719 812.199219 190.714844 812.261719 190.792969 C 812.390625 190.953125 812.519531 191.105469 812.652344 191.253906 L 812.75 191.363281 L 812.855469 191.464844 C 812.925781 191.535156 812.996094 191.601562 813.066406 191.667969 C 813.207031 191.796875 813.351562 191.917969 813.496094 192.03125 C 813.789062 192.253906 814.089844 192.433594 814.382812 192.5625 C 814.382812 192.5625 814.214844 192.519531 813.960938 192.453125 C 813.832031 192.421875 813.683594 192.378906 813.519531 192.335938 C 813.441406 192.3125 813.355469 192.289062 813.273438 192.265625 C 813.1875 192.242188 813.105469 192.214844 813.019531 192.1875 C 812.679688 192.082031 812.335938 191.964844 812.078125 191.875 C 812.011719 191.851562 811.953125 191.828125 811.902344 191.808594 C 811.851562 191.789062 811.804688 191.773438 811.769531 191.757812 C 811.695312 191.730469 811.652344 191.714844 811.652344 191.714844 C 811.679688 191.78125 811.707031 191.851562 811.734375 191.917969 C 811.765625 191.984375 811.792969 192.050781 811.824219 192.113281 C 811.882812 192.242188 811.941406 192.371094 812 192.496094 C 812.058594 192.625 812.117188 192.746094 812.171875 192.867188 C 812.234375 192.984375 812.292969 193.101562 812.351562 193.21875 C 812.46875 193.445312 812.582031 193.664062 812.699219 193.871094 C 812.816406 194.074219 812.929688 194.269531 813.039062 194.453125 C 813.09375 194.542969 813.148438 194.632812 813.199219 194.71875 C 813.253906 194.804688 813.308594 194.882812 813.363281 194.964844 C 813.46875 195.121094 813.566406 195.265625 813.660156 195.402344 C 813.707031 195.46875 813.753906 195.535156 813.796875 195.597656 C 813.839844 195.65625 813.886719 195.714844 813.929688 195.769531 C 814.011719 195.878906 814.089844 195.976562 814.160156 196.058594 C 814.246094 196.164062 814.335938 196.269531 814.429688 196.375 C 814.476562 196.425781 814.527344 196.476562 814.578125 196.53125 C 814.632812 196.582031 814.683594 196.632812 814.738281 196.6875 C 814.84375 196.792969 814.953125 196.898438 815.066406 197.003906 C 815.125 197.054688 815.183594 197.109375 815.242188 197.164062 C 815.304688 197.214844 815.367188 197.265625 815.429688 197.320312 C 815.554688 197.421875 815.683594 197.527344 815.816406 197.628906 C 815.949219 197.734375 816.082031 197.839844 816.226562 197.9375 C 816.367188 198.035156 816.515625 198.136719 816.664062 198.234375 C 816.8125 198.332031 816.960938 198.433594 817.117188 198.523438 C 817.117188 198.523438 817.191406 198.523438 817.316406 198.519531 C 817.445312 198.515625 817.625 198.511719 817.839844 198.503906 C 817.945312 198.5 818.058594 198.496094 818.183594 198.492188 C 818.300781 198.484375 818.433594 198.472656 818.566406 198.464844 C 818.832031 198.445312 819.113281 198.417969 819.386719 198.390625 C 819.457031 198.382812 819.523438 198.375 819.59375 198.367188 C 819.664062 198.359375 819.730469 198.347656 819.800781 198.339844 C 819.9375 198.320312 820.070312 198.300781 820.195312 198.28125 C 820.453125 198.242188 820.6875 198.203125 820.886719 198.167969 C 821.089844 198.128906 821.253906 198.09375 821.371094 198.066406 C 821.488281 198.042969 821.554688 198.027344 821.554688 198.027344 C 821.554688 198.027344 821.101562 198.472656 820.632812 198.90625 C 820.398438 199.121094 820.160156 199.339844 819.984375 199.496094 C 819.804688 199.65625 819.6875 199.761719 819.6875 199.761719 C 820.800781 200.171875 821.96875 200.457031 823.09375 200.601562 C 823.378906 200.632812 823.65625 200.664062 823.929688 200.683594 C 824.207031 200.695312 824.476562 200.707031 824.742188 200.710938 C 824.808594 200.710938 824.875 200.710938 824.941406 200.710938 C 825.007812 200.710938 825.074219 200.707031 825.136719 200.707031 C 825.269531 200.699219 825.398438 200.695312 825.523438 200.6875 C 825.652344 200.679688 825.777344 200.671875 825.898438 200.664062 C 825.960938 200.660156 826.023438 200.652344 826.082031 200.644531 C 826.144531 200.636719 826.207031 200.628906 826.265625 200.625 C 826.507812 200.59375 826.738281 200.558594 826.960938 200.519531 C 827.183594 200.476562 827.398438 200.425781 827.601562 200.371094 C 827.707031 200.34375 827.804688 200.316406 827.902344 200.289062 C 827.949219 200.273438 828 200.261719 828.046875 200.246094 C 828.09375 200.230469 828.140625 200.214844 828.1875 200.199219 C 828.371094 200.132812 828.546875 200.0625 828.710938 199.992188 C 828.789062 199.957031 828.871094 199.921875 828.945312 199.886719 C 828.980469 199.867188 829.019531 199.847656 829.054688 199.832031 C 829.09375 199.8125 829.128906 199.792969 829.164062 199.769531 C 829.304688 199.691406 829.433594 199.609375 829.546875 199.527344 C 829.78125 199.363281 829.964844 199.191406 830.097656 199.019531 C 830.097656 199.019531 829.953125 198.992188 829.683594 198.941406 C 829.617188 198.929688 829.542969 198.914062 829.460938 198.898438 C 829.417969 198.890625 829.375 198.882812 829.332031 198.875 C 829.308594 198.871094 829.285156 198.867188 829.261719 198.859375 C 829.238281 198.855469 829.214844 198.851562 829.191406 198.84375 C 828.996094 198.800781 828.777344 198.746094 828.527344 198.6875 C 828.496094 198.679688 828.464844 198.671875 828.433594 198.664062 C 828.402344 198.65625 828.371094 198.648438 828.339844 198.636719 C 828.273438 198.621094 828.207031 198.601562 828.140625 198.582031 C 828.003906 198.542969 827.863281 198.503906 827.714844 198.460938 C 827.640625 198.441406 827.566406 198.417969 827.492188 198.390625 C 827.417969 198.367188 827.339844 198.339844 827.261719 198.3125 C 827.183594 198.285156 827.101562 198.261719 827.019531 198.234375 C 826.980469 198.21875 826.9375 198.207031 826.898438 198.191406 C 826.878906 198.183594 826.855469 198.179688 826.835938 198.171875 C 826.816406 198.164062 826.792969 198.15625 826.773438 198.148438 C 826.609375 198.085938 826.4375 198.019531 826.261719 197.949219 C 826.21875 197.933594 826.175781 197.917969 826.128906 197.898438 C 826.109375 197.890625 826.085938 197.882812 826.0625 197.875 C 826.039062 197.863281 826.019531 197.855469 825.996094 197.84375 C 825.90625 197.804688 825.816406 197.765625 825.726562 197.726562 C 825.636719 197.6875 825.542969 197.648438 825.449219 197.605469 C 825.402344 197.585938 825.355469 197.566406 825.308594 197.546875 C 825.261719 197.523438 825.214844 197.5 825.167969 197.476562 C 824.984375 197.386719 824.792969 197.292969 824.597656 197.195312 C 823.824219 196.792969 823.015625 196.304688 822.207031 195.722656 C 821.402344 195.140625 820.597656 194.460938 819.835938 193.6875 C 819.078125 192.914062 818.359375 192.050781 817.722656 191.113281 C 817.082031 190.175781 816.519531 189.164062 816.054688 188.109375 C 815.59375 187.054688 815.230469 185.960938 814.976562 184.859375 C 814.722656 183.757812 814.574219 182.652344 814.527344 181.582031 C 814.503906 181.3125 814.507812 181.046875 814.503906 180.785156 C 814.503906 180.652344 814.5 180.523438 814.503906 180.390625 C 814.507812 180.261719 814.511719 180.132812 814.515625 180.003906 C 814.519531 179.9375 814.519531 179.875 814.523438 179.808594 L 814.527344 179.714844 L 814.53125 179.617188 C 814.542969 179.492188 814.550781 179.363281 814.558594 179.238281 C 814.574219 178.988281 814.605469 178.738281 814.632812 178.496094 C 814.746094 177.519531 814.933594 176.609375 815.160156 175.785156 C 815.390625 174.960938 815.65625 174.222656 815.921875 173.582031 C 815.992188 173.421875 816.058594 173.269531 816.125 173.121094 C 816.140625 173.085938 816.15625 173.046875 816.171875 173.011719 C 816.1875 172.976562 816.207031 172.941406 816.222656 172.90625 C 816.257812 172.835938 816.289062 172.765625 816.320312 172.699219 C 816.355469 172.628906 816.386719 172.5625 816.417969 172.5 C 816.449219 172.433594 816.480469 172.371094 816.511719 172.3125 C 816.578125 172.191406 816.636719 172.074219 816.695312 171.964844 C 816.726562 171.910156 816.753906 171.855469 816.78125 171.804688 C 816.808594 171.753906 816.839844 171.703125 816.867188 171.65625 C 816.921875 171.558594 816.972656 171.46875 817.023438 171.386719 C 817.117188 171.21875 817.207031 171.078125 817.277344 170.96875 C 817.347656 170.855469 817.402344 170.769531 817.4375 170.710938 C 817.457031 170.679688 817.472656 170.660156 817.480469 170.644531 C 817.488281 170.628906 817.496094 170.621094 817.496094 170.621094 C 817.496094 170.621094 817.488281 170.628906 817.480469 170.644531 C 817.472656 170.660156 817.457031 170.679688 817.441406 170.710938 C 817.40625 170.769531 817.355469 170.859375 817.289062 170.972656 C 817.21875 171.089844 817.136719 171.226562 817.046875 171.398438 C 817 171.484375 816.953125 171.574219 816.898438 171.671875 C 816.875 171.722656 816.84375 171.773438 816.820312 171.824219 C 816.792969 171.875 816.765625 171.929688 816.738281 171.984375 C 816.683594 172.097656 816.625 172.214844 816.566406 172.335938 C 816.535156 172.398438 816.507812 172.460938 816.476562 172.527344 C 816.449219 172.59375 816.417969 172.660156 816.386719 172.730469 C 816.359375 172.796875 816.328125 172.867188 816.292969 172.9375 C 816.277344 172.972656 816.261719 173.007812 816.246094 173.046875 C 816.234375 173.082031 816.21875 173.117188 816.203125 173.15625 C 816.140625 173.304688 816.082031 173.460938 816.015625 173.621094 C 815.773438 174.265625 815.53125 175.007812 815.328125 175.828125 C 815.128906 176.652344 814.972656 177.558594 814.886719 178.523438 C 814.871094 178.765625 814.84375 179.007812 814.835938 179.257812 C 814.832031 179.378906 814.828125 179.503906 814.824219 179.628906 L 814.820312 179.726562 L 814.820312 179.820312 C 814.816406 179.882812 814.816406 179.945312 814.816406 180.007812 C 814.816406 180.136719 814.816406 180.261719 814.816406 180.390625 C 814.816406 180.519531 814.828125 180.648438 814.832031 180.777344 C 814.84375 181.035156 814.847656 181.296875 814.875 181.558594 C 814.957031 182.609375 815.132812 183.6875 815.414062 184.753906 C 815.695312 185.816406 816.078125 186.871094 816.558594 187.878906 C 817.039062 188.886719 817.613281 189.847656 818.257812 190.734375 C 818.902344 191.621094 819.617188 192.429688 820.367188 193.148438 C 821.121094 193.867188 821.910156 194.496094 822.695312 195.027344 C 823.484375 195.5625 824.265625 196 825.011719 196.359375 C 825.199219 196.445312 825.382812 196.527344 825.566406 196.609375 C 825.609375 196.632812 825.65625 196.652344 825.699219 196.671875 C 825.746094 196.6875 825.789062 196.707031 825.835938 196.726562 C 825.925781 196.761719 826.011719 196.796875 826.101562 196.832031 C 826.1875 196.867188 826.273438 196.902344 826.359375 196.933594 C 826.378906 196.945312 826.402344 196.953125 826.421875 196.960938 C 826.445312 196.96875 826.464844 196.976562 826.488281 196.984375 C 826.527344 197 826.570312 197.011719 826.613281 197.027344 C 826.78125 197.085938 826.945312 197.144531 827.101562 197.199219 C 827.121094 197.207031 827.144531 197.214844 827.164062 197.21875 C 827.183594 197.226562 827.203125 197.230469 827.222656 197.238281 C 827.261719 197.25 827.300781 197.261719 827.339844 197.273438 C 827.417969 197.296875 827.492188 197.320312 827.566406 197.339844 C 827.644531 197.363281 827.71875 197.386719 827.789062 197.40625 C 827.859375 197.429688 827.933594 197.453125 828.003906 197.46875 C 828.144531 197.503906 828.277344 197.539062 828.40625 197.570312 C 828.472656 197.585938 828.535156 197.601562 828.59375 197.617188 C 828.625 197.625 828.65625 197.632812 828.6875 197.640625 C 828.714844 197.648438 828.746094 197.652344 828.777344 197.660156 C 829.011719 197.707031 829.222656 197.75 829.402344 197.789062 C 829.425781 197.792969 829.449219 197.796875 829.472656 197.800781 C 829.492188 197.804688 829.515625 197.808594 829.535156 197.8125 C 829.578125 197.816406 829.621094 197.824219 829.660156 197.832031 C 829.738281 197.84375 829.808594 197.855469 829.871094 197.863281 C 830.125 197.902344 830.261719 197.925781 830.261719 197.925781 C 830.148438 197.601562 829.933594 197.238281 829.652344 196.851562 C 829.511719 196.652344 829.355469 196.445312 829.191406 196.238281 C 829.148438 196.183594 829.105469 196.132812 829.0625 196.078125 C 829.023438 196.023438 828.980469 195.96875 828.9375 195.914062 C 828.847656 195.800781 828.757812 195.691406 828.667969 195.578125 C 828.625 195.523438 828.578125 195.464844 828.53125 195.410156 C 828.484375 195.351562 828.441406 195.292969 828.394531 195.234375 C 828.300781 195.113281 828.207031 194.996094 828.113281 194.878906 C 828.015625 194.765625 827.925781 194.636719 827.828125 194.515625 C 827.734375 194.390625 827.640625 194.269531 827.546875 194.148438 C 827.175781 193.640625 826.800781 193.140625 826.460938 192.621094 C 826.460938 192.621094 826.472656 192.796875 826.496094 193.066406 C 826.503906 193.132812 826.507812 193.207031 826.515625 193.285156 C 826.527344 193.363281 826.535156 193.441406 826.546875 193.523438 C 826.566406 193.691406 826.59375 193.871094 826.621094 194.050781 C 826.636719 194.140625 826.648438 194.234375 826.664062 194.320312 C 826.671875 194.367188 826.679688 194.410156 826.6875 194.453125 C 826.695312 194.496094 826.703125 194.539062 826.710938 194.582031 C 826.746094 194.75 826.78125 194.90625 826.808594 195.042969 C 826.871094 195.3125 826.917969 195.496094 826.917969 195.496094 " fill-opacity="1" fill-rule="nonzero"/></g><g clip-path="url(#07441133c6)"><path fill="#2bc2af" d="M 829.273438 179.691406 C 829.273438 179.691406 829.308594 179.761719 829.371094 179.882812 C 829.429688 180.007812 829.515625 180.179688 829.613281 180.386719 C 829.636719 180.4375 829.660156 180.492188 829.683594 180.550781 C 829.710938 180.605469 829.734375 180.664062 829.761719 180.726562 C 829.8125 180.847656 829.863281 180.972656 829.914062 181.101562 C 829.941406 181.167969 829.96875 181.234375 829.992188 181.300781 C 830.019531 181.367188 830.042969 181.4375 830.066406 181.507812 C 830.117188 181.648438 830.164062 181.789062 830.210938 181.925781 C 830.234375 181.996094 830.253906 182.0625 830.277344 182.132812 C 830.296875 182.203125 830.316406 182.273438 830.335938 182.34375 C 830.375 182.484375 830.410156 182.617188 830.445312 182.75 C 830.460938 182.8125 830.480469 182.875 830.496094 182.9375 C 830.507812 183 830.523438 183.066406 830.535156 183.125 C 830.5625 183.246094 830.585938 183.359375 830.605469 183.464844 C 830.625 183.566406 830.640625 183.660156 830.660156 183.746094 C 830.675781 183.828125 830.683594 183.902344 830.691406 183.964844 C 830.710938 184.085938 830.71875 184.15625 830.71875 184.15625 C 830.808594 184.308594 830.902344 184.453125 830.984375 184.605469 C 831.023438 184.683594 831.066406 184.753906 831.109375 184.828125 C 831.148438 184.898438 831.195312 184.96875 831.230469 185.042969 C 831.230469 185.042969 831.238281 185.011719 831.246094 184.964844 C 831.253906 184.914062 831.265625 184.84375 831.277344 184.757812 C 831.304688 184.589844 831.335938 184.359375 831.363281 184.128906 C 831.375 184.011719 831.386719 183.894531 831.398438 183.785156 C 831.40625 183.675781 831.414062 183.574219 831.421875 183.484375 C 831.433594 183.3125 831.4375 183.191406 831.4375 183.191406 C 831.4375 183.191406 831.46875 183.359375 831.507812 183.597656 C 831.527344 183.722656 831.542969 183.867188 831.5625 184.019531 C 831.578125 184.175781 831.59375 184.332031 831.609375 184.496094 C 831.621094 184.660156 831.628906 184.820312 831.632812 184.96875 C 831.636719 185.042969 831.640625 185.113281 831.640625 185.183594 C 831.644531 185.214844 831.644531 185.25 831.644531 185.28125 C 831.644531 185.3125 831.644531 185.34375 831.644531 185.375 C 831.644531 185.613281 831.640625 185.769531 831.640625 185.769531 C 831.675781 185.832031 831.710938 185.890625 831.75 185.953125 C 831.78125 186.011719 831.816406 186.070312 831.851562 186.128906 C 831.917969 186.246094 831.988281 186.355469 832.054688 186.460938 C 832.117188 186.566406 832.183594 186.667969 832.25 186.761719 C 832.285156 186.808594 832.320312 186.851562 832.351562 186.894531 C 832.382812 186.9375 832.414062 186.980469 832.445312 187.023438 C 832.445312 187.023438 832.472656 186.953125 832.523438 186.832031 C 832.542969 186.769531 832.574219 186.691406 832.605469 186.605469 C 832.632812 186.523438 832.667969 186.425781 832.703125 186.316406 C 832.773438 186.105469 832.855469 185.851562 832.933594 185.570312 C 833.007812 185.296875 833.082031 185 833.148438 184.695312 C 833.164062 184.617188 833.183594 184.539062 833.199219 184.464844 C 833.210938 184.386719 833.226562 184.3125 833.238281 184.238281 C 833.265625 184.085938 833.292969 183.9375 833.316406 183.789062 C 833.339844 183.644531 833.359375 183.5 833.378906 183.363281 C 833.394531 183.230469 833.40625 183.101562 833.417969 182.984375 C 833.445312 182.746094 833.460938 182.542969 833.46875 182.402344 C 833.480469 182.257812 833.484375 182.175781 833.484375 182.175781 C 833.484375 182.175781 833.5 182.273438 833.527344 182.445312 C 833.542969 182.527344 833.554688 182.628906 833.574219 182.746094 C 833.582031 182.804688 833.589844 182.867188 833.601562 182.929688 C 833.609375 182.996094 833.621094 183.0625 833.625 183.132812 C 833.640625 183.277344 833.65625 183.433594 833.667969 183.59375 C 833.675781 183.675781 833.683594 183.757812 833.6875 183.839844 C 833.691406 183.882812 833.695312 183.925781 833.699219 183.96875 C 833.699219 184.011719 833.699219 184.054688 833.703125 184.101562 C 833.710938 184.277344 833.714844 184.457031 833.714844 184.636719 C 833.71875 184.683594 833.71875 184.726562 833.71875 184.773438 C 833.71875 184.816406 833.71875 184.863281 833.71875 184.910156 C 833.714844 185 833.710938 185.09375 833.707031 185.183594 C 833.703125 185.367188 833.695312 185.546875 833.683594 185.71875 C 833.667969 185.898438 833.648438 186.070312 833.632812 186.234375 C 833.601562 186.5625 833.542969 186.871094 833.5 187.121094 C 833.457031 187.371094 833.402344 187.585938 833.367188 187.730469 C 833.332031 187.875 833.3125 187.957031 833.3125 187.957031 C 833.347656 187.992188 833.382812 188.027344 833.417969 188.066406 C 833.453125 188.105469 833.484375 188.144531 833.519531 188.183594 C 833.59375 188.265625 833.667969 188.347656 833.746094 188.433594 C 833.820312 188.519531 833.894531 188.613281 833.976562 188.707031 C 834.015625 188.757812 834.058594 188.804688 834.097656 188.851562 C 834.140625 188.902344 834.179688 188.953125 834.21875 189.007812 C 834.300781 189.109375 834.382812 189.21875 834.46875 189.328125 C 834.550781 189.441406 834.632812 189.558594 834.71875 189.675781 C 834.742188 189.707031 834.761719 189.734375 834.785156 189.765625 C 834.804688 189.796875 834.824219 189.828125 834.847656 189.859375 C 834.886719 189.921875 834.929688 189.984375 834.972656 190.050781 C 835.015625 190.113281 835.058594 190.179688 835.101562 190.246094 C 835.140625 190.3125 835.183594 190.378906 835.222656 190.449219 C 835.558594 190.996094 835.886719 191.617188 836.171875 192.304688 C 836.453125 192.988281 836.699219 193.746094 836.882812 194.554688 C 836.882812 194.554688 837.007812 194.484375 837.195312 194.371094 C 837.289062 194.316406 837.398438 194.25 837.515625 194.175781 C 837.574219 194.140625 837.632812 194.101562 837.695312 194.0625 C 837.753906 194.023438 837.8125 193.984375 837.875 193.945312 C 838.113281 193.78125 838.355469 193.609375 838.535156 193.476562 C 838.625 193.410156 838.703125 193.355469 838.753906 193.316406 C 838.78125 193.296875 838.800781 193.28125 838.8125 193.269531 C 838.828125 193.257812 838.835938 193.253906 838.835938 193.253906 C 838.160156 193.921875 837.816406 194.671875 837.59375 195.425781 C 837.566406 195.519531 837.542969 195.617188 837.519531 195.710938 C 837.507812 195.757812 837.5 195.804688 837.488281 195.851562 C 837.480469 195.898438 837.46875 195.945312 837.457031 195.992188 C 837.4375 196.082031 837.417969 196.175781 837.402344 196.269531 C 837.398438 196.316406 837.390625 196.363281 837.382812 196.40625 C 837.375 196.453125 837.367188 196.5 837.359375 196.542969 C 837.347656 196.636719 837.332031 196.726562 837.324219 196.816406 C 837.320312 196.859375 837.316406 196.902344 837.3125 196.949219 C 837.304688 196.992188 837.300781 197.035156 837.292969 197.078125 C 837.285156 197.164062 837.277344 197.25 837.269531 197.335938 C 837.261719 197.417969 837.261719 197.5 837.25 197.582031 L 837.253906 197.941406 L 837.253906 198.035156 C 837.253906 198.066406 837.25 198.09375 837.25 198.125 L 837.242188 198.308594 L 837.238281 198.492188 C 837.234375 198.550781 837.234375 198.613281 837.226562 198.671875 C 837.21875 198.796875 837.210938 198.917969 837.199219 199.039062 L 837.199219 199.042969 C 837.066406 200.730469 836.609375 202.4375 835.933594 203.980469 C 835.597656 204.753906 835.207031 205.484375 834.785156 206.15625 C 834.363281 206.832031 833.914062 207.449219 833.464844 208 C 833.015625 208.554688 832.574219 209.050781 832.152344 209.46875 C 832.101562 209.523438 832.050781 209.578125 832 209.628906 C 831.949219 209.679688 831.898438 209.726562 831.847656 209.777344 C 831.746094 209.875 831.652344 209.96875 831.558594 210.0625 C 831.511719 210.109375 831.464844 210.152344 831.417969 210.195312 C 831.371094 210.238281 831.328125 210.277344 831.285156 210.320312 C 831.195312 210.402344 831.113281 210.484375 831.03125 210.558594 C 830.871094 210.707031 830.722656 210.839844 830.597656 210.964844 C 830.566406 210.996094 830.535156 211.023438 830.507812 211.054688 C 830.476562 211.082031 830.449219 211.109375 830.421875 211.132812 C 830.367188 211.1875 830.320312 211.234375 830.277344 211.28125 C 830.105469 211.464844 830.023438 211.59375 830.050781 211.660156 C 830.09375 211.769531 830.351562 211.816406 830.796875 211.804688 C 830.910156 211.800781 831.03125 211.785156 831.164062 211.773438 C 831.296875 211.757812 831.445312 211.738281 831.601562 211.714844 C 831.753906 211.6875 831.917969 211.652344 832.097656 211.617188 C 832.273438 211.582031 832.457031 211.53125 832.648438 211.480469 C 833.425781 211.269531 834.347656 210.941406 835.347656 210.449219 C 836.347656 209.957031 837.433594 209.304688 838.507812 208.453125 C 838.507812 208.453125 838.539062 208.425781 838.59375 208.367188 C 838.648438 208.308594 838.734375 208.226562 838.832031 208.109375 C 838.933594 207.988281 839.050781 207.84375 839.1875 207.664062 C 839.257812 207.574219 839.324219 207.476562 839.394531 207.371094 C 839.464844 207.261719 839.539062 207.148438 839.617188 207.027344 C 839.632812 206.996094 839.652344 206.96875 839.671875 206.9375 C 839.691406 206.902344 839.710938 206.871094 839.730469 206.839844 C 839.765625 206.773438 839.804688 206.703125 839.839844 206.636719 C 839.878906 206.566406 839.917969 206.496094 839.957031 206.421875 C 839.996094 206.347656 840.035156 206.273438 840.070312 206.195312 C 840.144531 206.039062 840.21875 205.875 840.289062 205.703125 C 840.308594 205.660156 840.328125 205.617188 840.34375 205.574219 C 840.359375 205.53125 840.378906 205.484375 840.394531 205.441406 C 840.429688 205.351562 840.460938 205.257812 840.496094 205.164062 C 840.757812 204.414062 840.960938 203.535156 841.027344 202.5625 C 841.027344 202.5625 841.046875 202.597656 841.078125 202.65625 C 841.109375 202.714844 841.15625 202.796875 841.207031 202.894531 C 841.3125 203.097656 841.449219 203.371094 841.585938 203.648438 C 841.71875 203.925781 841.839844 204.207031 841.933594 204.425781 C 842.023438 204.640625 842.082031 204.785156 842.082031 204.785156 C 842.160156 204.679688 842.242188 204.570312 842.320312 204.460938 C 842.363281 204.351562 842.410156 204.238281 842.457031 204.125 C 842.5 204.011719 842.542969 203.894531 842.585938 203.777344 C 842.625 203.660156 842.667969 203.539062 842.707031 203.421875 C 842.746094 203.300781 842.78125 203.179688 842.816406 203.054688 C 842.851562 202.933594 842.886719 202.8125 842.917969 202.6875 C 842.949219 202.5625 842.976562 202.4375 843.003906 202.316406 C 843.027344 202.191406 843.054688 202.066406 843.078125 201.941406 L 843.09375 201.847656 L 843.105469 201.757812 C 843.117188 201.695312 843.125 201.632812 843.132812 201.570312 C 843.203125 201.078125 843.222656 200.59375 843.203125 200.148438 C 843.1875 199.921875 843.164062 199.707031 843.132812 199.503906 C 843.117188 199.402344 843.09375 199.304688 843.070312 199.210938 C 843.042969 199.113281 843.019531 199.019531 842.988281 198.933594 C 842.988281 198.933594 843.074219 199.058594 843.203125 199.257812 C 843.335938 199.453125 843.496094 199.71875 843.65625 199.992188 C 843.738281 200.125 843.816406 200.265625 843.890625 200.394531 C 843.964844 200.527344 844.027344 200.648438 844.082031 200.753906 C 844.195312 200.96875 844.269531 201.113281 844.269531 201.113281 C 844.726562 200.125 845.109375 199.085938 845.410156 198.023438 C 845.714844 196.960938 845.9375 195.875 846.074219 194.789062 C 846.203125 193.703125 846.261719 192.617188 846.246094 191.550781 C 846.222656 191.019531 846.207031 190.488281 846.152344 189.972656 C 846.136719 189.84375 846.125 189.714844 846.113281 189.585938 C 846.105469 189.523438 846.101562 189.457031 846.09375 189.394531 C 846.085938 189.332031 846.078125 189.269531 846.066406 189.203125 C 846.03125 188.953125 845.996094 188.699219 845.960938 188.449219 C 845.960938 188.449219 845.941406 188.375 845.898438 188.242188 C 845.855469 188.105469 845.792969 187.914062 845.710938 187.675781 C 845.6875 187.617188 845.667969 187.554688 845.644531 187.492188 C 845.621094 187.425781 845.597656 187.359375 845.566406 187.292969 C 845.511719 187.15625 845.449219 187.007812 845.382812 186.859375 C 845.316406 186.707031 845.246094 186.546875 845.167969 186.382812 C 845.085938 186.222656 845 186.058594 844.910156 185.890625 C 844.863281 185.804688 844.816406 185.722656 844.769531 185.636719 C 844.746094 185.59375 844.722656 185.550781 844.695312 185.507812 C 844.671875 185.464844 844.644531 185.425781 844.617188 185.382812 C 844.511719 185.214844 844.402344 185.046875 844.289062 184.882812 C 844.230469 184.796875 844.171875 184.714844 844.113281 184.632812 C 844.050781 184.554688 843.988281 184.472656 843.925781 184.394531 C 843.800781 184.238281 843.667969 184.085938 843.539062 183.9375 L 843.4375 183.828125 L 843.332031 183.722656 C 843.261719 183.65625 843.191406 183.589844 843.121094 183.523438 C 842.980469 183.394531 842.835938 183.269531 842.695312 183.15625 C 842.398438 182.9375 842.097656 182.757812 841.804688 182.628906 C 841.804688 182.628906 841.976562 182.667969 842.230469 182.734375 C 842.359375 182.769531 842.507812 182.808594 842.667969 182.855469 C 842.75 182.875 842.832031 182.898438 842.917969 182.925781 C 843.003906 182.949219 843.085938 182.976562 843.171875 183.003906 C 843.507812 183.109375 843.851562 183.226562 844.109375 183.316406 C 844.175781 183.339844 844.234375 183.359375 844.289062 183.378906 C 844.339844 183.398438 844.382812 183.417969 844.421875 183.429688 C 844.496094 183.460938 844.539062 183.476562 844.539062 183.476562 C 844.507812 183.40625 844.480469 183.339844 844.453125 183.273438 C 844.425781 183.207031 844.394531 183.140625 844.367188 183.074219 C 844.304688 182.945312 844.246094 182.816406 844.191406 182.691406 C 844.132812 182.566406 844.074219 182.445312 844.015625 182.324219 C 843.957031 182.203125 843.898438 182.085938 843.839844 181.972656 C 843.71875 181.746094 843.605469 181.527344 843.492188 181.320312 C 843.371094 181.117188 843.257812 180.921875 843.148438 180.738281 C 843.09375 180.648438 843.039062 180.558594 842.988281 180.472656 C 842.933594 180.386719 842.878906 180.304688 842.828125 180.226562 C 842.722656 180.070312 842.621094 179.921875 842.527344 179.789062 C 842.480469 179.71875 842.4375 179.65625 842.390625 179.59375 C 842.347656 179.53125 842.304688 179.476562 842.261719 179.421875 C 842.175781 179.3125 842.097656 179.214844 842.027344 179.128906 C 841.941406 179.027344 841.851562 178.921875 841.757812 178.816406 C 841.710938 178.761719 841.660156 178.710938 841.609375 178.660156 C 841.558594 178.609375 841.503906 178.554688 841.453125 178.503906 C 841.347656 178.398438 841.234375 178.292969 841.121094 178.1875 C 841.0625 178.132812 841.003906 178.082031 840.945312 178.027344 C 840.886719 177.976562 840.824219 177.921875 840.761719 177.871094 C 840.636719 177.769531 840.507812 177.664062 840.375 177.558594 C 840.242188 177.457031 840.105469 177.351562 839.960938 177.253906 C 839.820312 177.152344 839.675781 177.054688 839.527344 176.957031 C 839.378906 176.859375 839.230469 176.757812 839.070312 176.667969 C 839.070312 176.667969 839 176.667969 838.871094 176.671875 C 838.746094 176.671875 838.566406 176.675781 838.351562 176.683594 C 838.246094 176.6875 838.128906 176.695312 838.007812 176.699219 C 837.886719 176.703125 837.753906 176.714844 837.625 176.726562 C 837.359375 176.746094 837.078125 176.773438 836.800781 176.800781 C 836.734375 176.808594 836.664062 176.816406 836.59375 176.824219 C 836.527344 176.832031 836.457031 176.84375 836.390625 176.851562 C 836.253906 176.871094 836.121094 176.890625 835.992188 176.910156 C 835.738281 176.949219 835.5 176.988281 835.300781 177.023438 C 835.101562 177.0625 834.933594 177.097656 834.816406 177.121094 C 834.703125 177.148438 834.636719 177.160156 834.636719 177.160156 C 834.636719 177.160156 835.089844 176.71875 835.558594 176.285156 C 835.789062 176.066406 836.027344 175.851562 836.207031 175.691406 C 836.382812 175.535156 836.503906 175.429688 836.503906 175.429688 C 835.390625 175.015625 834.222656 174.730469 833.09375 174.589844 C 832.8125 174.558594 832.535156 174.527344 832.257812 174.507812 C 831.984375 174.492188 831.710938 174.484375 831.445312 174.480469 C 831.378906 174.480469 831.3125 174.480469 831.25 174.476562 C 831.183594 174.480469 831.117188 174.484375 831.050781 174.484375 C 830.921875 174.488281 830.792969 174.496094 830.664062 174.5 C 830.539062 174.507812 830.414062 174.515625 830.289062 174.527344 C 830.226562 174.53125 830.167969 174.539062 830.105469 174.542969 C 830.042969 174.550781 829.984375 174.558594 829.921875 174.566406 C 829.683594 174.597656 829.453125 174.632812 829.230469 174.671875 C 829.007812 174.714844 828.789062 174.765625 828.585938 174.820312 C 828.484375 174.84375 828.382812 174.871094 828.285156 174.902344 C 828.238281 174.914062 828.191406 174.929688 828.144531 174.945312 C 828.09375 174.960938 828.046875 174.976562 828.003906 174.992188 C 827.816406 175.058594 827.644531 175.125 827.480469 175.195312 C 827.398438 175.230469 827.320312 175.269531 827.246094 175.304688 C 827.207031 175.324219 827.171875 175.339844 827.132812 175.359375 C 827.097656 175.378906 827.0625 175.398438 827.027344 175.417969 C 826.886719 175.5 826.757812 175.582031 826.640625 175.664062 C 826.40625 175.828125 826.226562 176 826.09375 176.171875 C 826.09375 176.171875 826.238281 176.199219 826.503906 176.25 C 826.570312 176.261719 826.648438 176.277344 826.730469 176.292969 C 826.769531 176.300781 826.8125 176.308594 826.859375 176.316406 C 826.882812 176.320312 826.90625 176.324219 826.925781 176.328125 C 826.949219 176.335938 826.972656 176.339844 827 176.34375 C 827.191406 176.390625 827.414062 176.441406 827.660156 176.5 C 827.691406 176.507812 827.722656 176.515625 827.753906 176.523438 C 827.785156 176.535156 827.816406 176.542969 827.851562 176.550781 C 827.914062 176.570312 827.980469 176.589844 828.046875 176.609375 C 828.183594 176.648438 828.324219 176.6875 828.472656 176.730469 C 828.546875 176.75 828.621094 176.773438 828.695312 176.800781 C 828.773438 176.824219 828.851562 176.851562 828.929688 176.875 C 829.007812 176.902344 829.085938 176.929688 829.167969 176.957031 C 829.207031 176.96875 829.25 176.984375 829.292969 176.996094 C 829.3125 177.003906 829.332031 177.011719 829.351562 177.019531 C 829.375 177.027344 829.394531 177.035156 829.414062 177.042969 C 829.582031 177.105469 829.75 177.171875 829.925781 177.238281 C 829.96875 177.257812 830.015625 177.273438 830.058594 177.289062 C 830.082031 177.300781 830.105469 177.308594 830.125 177.316406 C 830.148438 177.324219 830.171875 177.335938 830.191406 177.34375 C 830.28125 177.382812 830.371094 177.421875 830.460938 177.460938 C 830.554688 177.503906 830.644531 177.542969 830.738281 177.582031 C 830.785156 177.605469 830.832031 177.625 830.878906 177.644531 C 830.925781 177.667969 830.972656 177.691406 831.019531 177.714844 C 831.207031 177.804688 831.398438 177.898438 831.59375 177.996094 C 832.363281 178.398438 833.175781 178.882812 833.980469 179.46875 C 834.789062 180.050781 835.589844 180.730469 836.351562 181.503906 C 837.113281 182.277344 837.828125 183.140625 838.46875 184.078125 C 839.109375 185.015625 839.671875 186.027344 840.132812 187.078125 C 840.59375 188.132812 840.957031 189.230469 841.210938 190.332031 C 841.46875 191.429688 841.613281 192.535156 841.664062 193.609375 C 841.683594 193.875 841.679688 194.140625 841.683594 194.40625 C 841.683594 194.539062 841.6875 194.667969 841.6875 194.796875 C 841.679688 194.929688 841.675781 195.058594 841.671875 195.1875 C 841.671875 195.253906 841.667969 195.316406 841.667969 195.378906 L 841.664062 195.476562 L 841.65625 195.570312 C 841.648438 195.699219 841.640625 195.824219 841.628906 195.953125 C 841.617188 196.203125 841.582031 196.449219 841.558594 196.695312 C 841.441406 197.667969 841.253906 198.578125 841.027344 199.402344 C 840.800781 200.230469 840.53125 200.964844 840.269531 201.609375 C 840.199219 201.765625 840.132812 201.921875 840.066406 202.070312 C 840.050781 202.105469 840.035156 202.140625 840.019531 202.179688 C 840 202.214844 839.984375 202.25 839.96875 202.285156 C 839.933594 202.355469 839.898438 202.425781 839.867188 202.492188 C 839.835938 202.558594 839.800781 202.625 839.769531 202.691406 C 839.738281 202.753906 839.710938 202.820312 839.675781 202.878906 C 839.613281 203 839.550781 203.117188 839.492188 203.226562 C 839.464844 203.28125 839.433594 203.335938 839.40625 203.386719 C 839.378906 203.4375 839.351562 203.488281 839.324219 203.535156 C 839.265625 203.628906 839.214844 203.71875 839.167969 203.804688 C 839.070312 203.972656 838.984375 204.109375 838.914062 204.222656 C 838.839844 204.335938 838.789062 204.421875 838.75 204.480469 C 838.730469 204.511719 838.71875 204.53125 838.710938 204.546875 C 838.699219 204.5625 838.695312 204.570312 838.695312 204.570312 C 838.695312 204.570312 838.699219 204.5625 838.707031 204.546875 C 838.71875 204.53125 838.730469 204.507812 838.746094 204.480469 C 838.78125 204.417969 838.835938 204.332031 838.902344 204.214844 C 838.96875 204.101562 839.054688 203.960938 839.144531 203.789062 C 839.1875 203.707031 839.238281 203.613281 839.289062 203.515625 C 839.316406 203.46875 839.34375 203.417969 839.371094 203.367188 C 839.394531 203.3125 839.421875 203.257812 839.449219 203.203125 C 839.503906 203.09375 839.5625 202.976562 839.625 202.851562 C 839.652344 202.792969 839.683594 202.726562 839.710938 202.660156 C 839.742188 202.597656 839.769531 202.53125 839.800781 202.460938 C 839.832031 202.394531 839.863281 202.324219 839.894531 202.253906 C 839.910156 202.21875 839.925781 202.179688 839.941406 202.144531 C 839.957031 202.109375 839.972656 202.070312 839.988281 202.035156 C 840.046875 201.882812 840.109375 201.730469 840.171875 201.570312 C 840.417969 200.925781 840.660156 200.183594 840.859375 199.359375 C 841.058594 198.539062 841.21875 197.632812 841.300781 196.667969 C 841.320312 196.425781 841.34375 196.183594 841.351562 195.933594 C 841.355469 195.808594 841.363281 195.683594 841.367188 195.558594 L 841.371094 195.464844 L 841.371094 195.371094 C 841.371094 195.308594 841.371094 195.246094 841.371094 195.179688 C 841.371094 195.054688 841.371094 194.925781 841.371094 194.796875 C 841.371094 194.671875 841.363281 194.542969 841.359375 194.410156 C 841.347656 194.152344 841.34375 193.890625 841.3125 193.628906 C 841.234375 192.582031 841.054688 191.503906 840.773438 190.4375 C 840.496094 189.371094 840.109375 188.316406 839.628906 187.308594 C 839.148438 186.300781 838.574219 185.339844 837.929688 184.457031 C 837.285156 183.570312 836.574219 182.757812 835.820312 182.042969 C 835.070312 181.324219 834.28125 180.695312 833.492188 180.164062 C 832.707031 179.628906 831.921875 179.191406 831.175781 178.828125 C 830.988281 178.746094 830.804688 178.660156 830.625 178.578125 C 830.578125 178.558594 830.535156 178.539062 830.488281 178.519531 C 830.445312 178.5 830.398438 178.484375 830.355469 178.464844 C 830.265625 178.429688 830.175781 178.394531 830.089844 178.359375 C 830 178.324219 829.914062 178.289062 829.832031 178.253906 C 829.808594 178.246094 829.789062 178.238281 829.765625 178.230469 C 829.746094 178.222656 829.722656 178.214844 829.703125 178.207031 C 829.660156 178.191406 829.617188 178.175781 829.574219 178.164062 C 829.40625 178.101562 829.246094 178.046875 829.085938 177.992188 C 829.066406 177.984375 829.046875 177.976562 829.027344 177.96875 C 829.007812 177.964844 828.988281 177.957031 828.96875 177.953125 C 828.929688 177.941406 828.890625 177.929688 828.851562 177.917969 C 828.773438 177.894531 828.695312 177.871094 828.621094 177.847656 C 828.546875 177.824219 828.472656 177.804688 828.398438 177.78125 C 828.328125 177.761719 828.257812 177.738281 828.1875 177.722656 C 828.046875 177.6875 827.910156 177.652344 827.78125 177.621094 C 827.71875 177.605469 827.65625 177.589844 827.59375 177.574219 C 827.5625 177.566406 827.53125 177.558594 827.503906 177.550781 C 827.472656 177.542969 827.441406 177.539062 827.414062 177.53125 C 827.179688 177.484375 826.96875 177.441406 826.785156 177.402344 C 826.761719 177.398438 826.738281 177.394531 826.71875 177.390625 C 826.695312 177.386719 826.675781 177.382812 826.652344 177.378906 C 826.609375 177.371094 826.570312 177.367188 826.53125 177.359375 C 826.453125 177.347656 826.382812 177.335938 826.316406 177.328125 C 826.0625 177.285156 825.929688 177.265625 825.929688 177.265625 C 826.039062 177.589844 826.257812 177.953125 826.539062 178.335938 C 826.675781 178.539062 826.832031 178.742188 827 178.953125 C 827.039062 179.003906 827.082031 179.058594 827.125 179.109375 C 827.167969 179.164062 827.210938 179.222656 827.253906 179.277344 C 827.339844 179.386719 827.429688 179.5 827.519531 179.613281 C 827.566406 179.667969 827.613281 179.722656 827.65625 179.78125 C 827.703125 179.839844 827.75 179.898438 827.796875 179.957031 C 827.886719 180.074219 827.980469 180.195312 828.078125 180.3125 C 828.171875 180.425781 828.265625 180.550781 828.359375 180.675781 C 828.453125 180.796875 828.546875 180.921875 828.644531 181.042969 C 829.015625 181.550781 829.390625 182.046875 829.726562 182.570312 C 829.726562 182.570312 829.71875 182.394531 829.691406 182.121094 C 829.6875 182.054688 829.679688 181.980469 829.671875 181.90625 C 829.664062 181.828125 829.652344 181.75 829.644531 181.664062 C 829.621094 181.5 829.597656 181.320312 829.570312 181.140625 C 829.554688 181.046875 829.539062 180.957031 829.523438 180.867188 C 829.515625 180.824219 829.507812 180.777344 829.5 180.734375 C 829.492188 180.691406 829.484375 180.648438 829.476562 180.609375 C 829.441406 180.441406 829.410156 180.28125 829.378906 180.148438 C 829.320312 179.875 829.273438 179.691406 829.273438 179.691406 " fill-opacity="1" fill-rule="nonzero"/></g></svg>