<svg xmlns="http://www.w3.org/2000/svg" xmlns:xlink="http://www.w3.org/1999/xlink" width="1366" zoomAndPan="magnify" viewBox="0 0 1024.5 576" height="768" preserveAspectRatio="xMidYMid meet" version="1.0"><defs><clipPath id="5cc45eb9e5"><path d="M 862.894531 69.855469 L 917 69.855469 L 917 138 L 862.894531 138 Z M 862.894531 69.855469 " clip-rule="nonzero"/></clipPath><clipPath id="5aa2a78052"><path d="M 909 88 L 951.351562 88 L 951.351562 122 L 909 122 Z M 909 88 " clip-rule="nonzero"/></clipPath><clipPath id="91960dadb9"><path d="M 879 94 L 940 94 L 940 139.570312 L 879 139.570312 Z M 879 94 " clip-rule="nonzero"/></clipPath></defs><g clip-path="url(#5cc45eb9e5)"><path fill="#3a9a99" d="M 889.726562 137.925781 C 889.058594 137.925781 888.335938 137.925781 887.464844 137.90625 C 887.371094 137.90625 887.277344 137.90625 887.167969 137.90625 C 886.535156 137.90625 885.886719 137.90625 885.3125 137.535156 L 885.03125 137.371094 L 885.347656 137.332031 C 890.710938 136.777344 894.792969 135.496094 898.171875 133.308594 C 901.769531 130.992188 903.980469 128.097656 904.960938 124.445312 L 904.960938 124.425781 C 905.257812 123.292969 905.316406 123.257812 906.464844 123.257812 C 907.671875 123.257812 908.859375 123.164062 910.007812 123 C 909.636719 123.015625 909.25 123.015625 908.878906 123.015625 C 908.191406 123.015625 907.597656 123 907.039062 122.941406 C 902.605469 122.628906 898.335938 121.292969 893.996094 118.863281 L 894.089844 118.660156 C 895.90625 119.328125 897.910156 119.625 900.359375 119.625 C 901.085938 119.625 901.828125 119.605469 902.570312 119.566406 C 897.578125 118.917969 892.863281 116.972656 888.1875 113.613281 L 888.28125 113.410156 C 888.632812 113.503906 888.96875 113.613281 889.320312 113.707031 C 890.082031 113.929688 890.859375 114.171875 891.65625 114.355469 C 893.066406 114.707031 894.238281 114.914062 895.3125 115.003906 C 895.535156 115.023438 895.777344 115.042969 896 115.0625 C 896.574219 115.117188 897.148438 115.171875 897.742188 115.171875 C 897.929688 115.171875 898.097656 115.171875 898.261719 115.152344 C 898.171875 115.136719 898.058594 115.117188 897.964844 115.097656 C 897.261719 114.949219 896.539062 114.800781 895.832031 114.617188 C 891.527344 113.484375 887.464844 111.351562 883.417969 108.125 C 883.269531 107.996094 883.101562 107.882812 882.9375 107.773438 C 882.507812 107.476562 882.082031 107.160156 881.765625 106.714844 L 881.710938 106.640625 C 881.710938 106.640625 881.765625 106.566406 881.785156 106.566406 L 881.785156 106.4375 L 881.953125 106.511719 C 882.453125 106.753906 882.972656 107.011719 883.457031 107.253906 C 884.421875 107.734375 885.441406 108.238281 886.460938 108.644531 C 888.375 109.40625 890.378906 109.90625 892.25 110.371094 C 892.289062 110.371094 892.324219 110.386719 892.34375 110.386719 C 892.363281 110.386719 892.398438 110.386719 892.417969 110.371094 C 890.878906 109.757812 889.226562 109.054688 887.6875 108.179688 L 887.628906 108.164062 C 886.515625 107.53125 879.800781 102.394531 877.871094 100.28125 L 877.742188 100.132812 C 877.683594 100.078125 877.648438 100.023438 877.609375 99.984375 L 877.574219 99.929688 L 877.574219 99.890625 C 877.574219 99.875 877.574219 99.835938 877.554688 99.816406 L 877.554688 99.78125 L 877.519531 99.742188 L 877.40625 99.742188 L 877.40625 99.613281 L 877.371094 99.59375 L 877.3125 99.59375 L 877.277344 99.558594 C 877.238281 99.519531 877.203125 99.484375 877.164062 99.445312 C 876.257812 98.574219 875.570312 97.554688 875.011719 96.683594 L 875.179688 96.535156 L 877.925781 98.648438 C 879.300781 99.558594 880.785156 100.335938 882.210938 101.097656 C 882.992188 101.503906 883.808594 101.933594 884.585938 102.378906 C 884.605469 102.378906 884.644531 102.394531 884.679688 102.394531 C 884.699219 102.394531 884.734375 102.394531 884.753906 102.394531 C 884.921875 102.433594 885.089844 102.46875 885.238281 102.507812 C 884.921875 102.285156 884.585938 102.0625 884.273438 101.859375 C 883.472656 101.339844 882.640625 100.78125 881.914062 100.132812 C 879.78125 98.59375 877.683594 96.703125 875.550781 94.308594 C 874.84375 93.53125 873.9375 92.492188 873.136719 91.363281 C 873.101562 91.304688 872.988281 91.175781 872.988281 91.175781 C 872.988281 91.175781 872.972656 91.140625 872.972656 91.121094 C 872.972656 91.121094 872.859375 90.972656 872.824219 90.917969 L 872.804688 90.898438 C 872.765625 90.859375 872.675781 90.75 872.675781 90.75 L 872.675781 90.710938 C 872.675781 90.675781 872.675781 90.636719 872.65625 90.601562 C 872.65625 90.601562 872.65625 90.582031 872.65625 90.582031 C 872.65625 90.582031 872.636719 90.5625 872.601562 90.546875 L 872.542969 90.546875 L 872.507812 90.507812 C 871.46875 89.265625 870.558594 87.839844 869.742188 86.132812 L 869.929688 86.003906 C 870.96875 86.929688 873.527344 89.210938 873.527344 89.210938 L 873.433594 89.210938 C 873.433594 89.210938 873.453125 89.210938 873.453125 89.230469 L 873.472656 89.230469 L 873.507812 89.246094 L 873.546875 89.246094 C 873.546875 89.246094 873.566406 89.246094 873.566406 89.246094 L 873.640625 89.246094 L 873.65625 89.320312 L 873.65625 89.359375 L 873.675781 89.394531 L 873.695312 89.414062 C 873.714844 89.414062 873.730469 89.433594 873.730469 89.433594 C 873.75 89.433594 873.75 89.433594 873.769531 89.433594 C 873.789062 89.433594 873.804688 89.433594 873.804688 89.433594 L 873.84375 89.433594 L 873.878906 89.453125 C 873.917969 89.488281 874.066406 89.582031 874.066406 89.582031 L 874.398438 89.824219 C 875.941406 90.917969 877.519531 92.066406 879.1875 93.011719 C 878.761719 92.621094 878.335938 92.234375 877.925781 91.863281 C 876.960938 90.992188 875.941406 90.082031 875.03125 89.097656 C 874.9375 88.988281 874.828125 88.875 874.734375 88.765625 L 874.605469 88.617188 C 874.546875 88.5625 874.511719 88.523438 874.457031 88.46875 C 874.457031 88.46875 874.363281 88.375 874.324219 88.339844 L 874.289062 88.320312 L 874.289062 88.300781 C 874.25 88.265625 874.214844 88.226562 874.175781 88.191406 C 874.085938 88.097656 873.992188 88.003906 873.898438 87.894531 C 872.488281 86.410156 870.875 84.628906 869.558594 82.644531 C 867.257812 79.585938 865.328125 76.230469 863.804688 72.707031 C 863.710938 72.503906 863.621094 72.316406 863.527344 72.113281 C 863.25 71.554688 862.96875 70.980469 862.933594 70.296875 L 862.894531 69.90625 L 863.117188 70.183594 C 865.179688 72.78125 867.015625 74.800781 868.890625 76.542969 C 869.722656 77.324219 870.578125 78.085938 871.414062 78.824219 C 871.800781 79.179688 872.210938 79.53125 872.601562 79.902344 L 873.121094 80.289062 C 874.992188 81.699219 876.925781 83.164062 878.855469 84.574219 C 879.019531 84.703125 883.511719 87.632812 884.289062 88.117188 C 886.070312 89.230469 887.890625 90.378906 889.726562 91.472656 C 890.933594 92.195312 892.175781 92.882812 893.402344 93.53125 C 893.941406 93.828125 894.476562 94.125 895.015625 94.421875 L 895.609375 94.773438 C 896.148438 95.089844 896.667969 95.40625 897.207031 95.71875 L 897.984375 96.164062 C 901.53125 98.242188 905.183594 100.394531 908.375 103.117188 C 910.640625 105.046875 912.421875 107.105469 913.832031 109.386719 C 914.742188 110.851562 915.484375 112.519531 916.207031 114.671875 L 916.207031 114.707031 C 916.246094 115.097656 916.335938 115.488281 916.410156 115.878906 C 916.542969 116.46875 916.652344 117.082031 916.652344 117.714844 C 916.652344 117.75 916.652344 117.769531 916.652344 117.804688 C 917.0625 121.699219 916.078125 125.410156 913.738281 128.839844 C 913.703125 128.894531 913.644531 128.949219 913.609375 128.988281 C 913.609375 128.988281 913.496094 129.117188 913.480469 129.136719 L 913.460938 129.15625 C 913.441406 129.171875 913.421875 129.191406 913.40625 129.210938 L 913.367188 129.246094 L 913.347656 129.304688 C 912.441406 130.710938 911.179688 131.734375 910.195312 132.472656 C 905.464844 136.015625 900.027344 137.074219 895.351562 137.628906 C 893.734375 137.832031 891.9375 137.925781 889.726562 137.925781 Z M 889.726562 137.925781 " fill-opacity="1" fill-rule="nonzero"/></g><g clip-path="url(#5aa2a78052)"><path fill="#3c4054" d="M 941.222656 120.996094 C 940.421875 120.402344 939.734375 119.902344 938.992188 119.492188 L 938.976562 119.492188 L 938.957031 119.476562 C 938.734375 119.253906 938.457031 119.214844 938.160156 119.179688 C 938.046875 119.160156 937.9375 119.140625 937.804688 119.121094 C 935.191406 118.511719 933.203125 116.898438 931.757812 115.542969 C 930.644531 114.503906 929.753906 113.226562 928.957031 112 L 928.898438 111.910156 C 928.84375 111.816406 928.808594 111.742188 928.75 111.648438 L 928.734375 111.628906 L 928.734375 111.613281 C 927.992188 110.460938 927.433594 109.164062 927.042969 107.644531 C 926.933594 107.21875 926.746094 107.011719 926.339844 106.882812 C 925.835938 106.734375 925.335938 106.550781 924.871094 106.363281 C 924.484375 106.214844 924.054688 106.066406 923.648438 105.9375 C 923.089844 105.753906 922.535156 105.546875 922.015625 105.34375 C 921.125 105.011719 920.214844 104.65625 919.269531 104.453125 L 919.230469 104.453125 L 919.214844 104.433594 C 918.972656 104.214844 918.675781 104.140625 918.339844 104.066406 L 918.175781 104.027344 L 918.15625 103.992188 C 918.117188 103.933594 918.0625 103.933594 917.96875 103.917969 C 917.914062 103.917969 917.878906 103.898438 917.820312 103.898438 L 916.503906 103.398438 C 915.929688 103.191406 915.335938 102.988281 914.742188 102.765625 L 914.722656 102.765625 L 914.703125 102.746094 C 914.480469 102.582031 914.203125 102.507812 913.925781 102.433594 C 913.851562 102.414062 913.792969 102.394531 913.71875 102.378906 C 913.050781 102.117188 912.382812 101.875 911.734375 101.617188 L 911.140625 101.394531 L 911.121094 101.375 C 910.992188 101.28125 910.824219 101.246094 910.660156 101.191406 C 910.378906 101.117188 910.046875 101.042969 909.878906 100.691406 L 909.84375 100.597656 L 909.933594 100.542969 C 910.546875 100.246094 911.179688 99.949219 911.789062 99.652344 C 913.421875 98.855469 915.132812 98.039062 916.839844 97.351562 C 917.933594 96.90625 919.027344 96.480469 920.140625 96.035156 L 921.328125 95.570312 C 926.300781 93.660156 931.570312 92.085938 937.027344 90.84375 C 937.472656 90.75 937.917969 90.636719 938.363281 90.527344 C 939.867188 90.175781 941.40625 89.804688 942.964844 89.601562 C 944.152344 89.265625 945.394531 89.082031 946.601562 88.894531 C 947.175781 88.800781 947.769531 88.710938 948.363281 88.617188 C 949.199219 88.46875 950.128906 88.339844 951.277344 88.226562 L 951.351562 88.433594 C 950.515625 89.007812 949.738281 89.675781 948.976562 90.324219 C 948.289062 90.933594 947.566406 91.546875 946.804688 92.085938 L 946.769531 92.121094 L 946.695312 92.214844 C 946.304688 92.753906 945.804688 93.199219 945.320312 93.625 C 945.191406 93.734375 945.082031 93.847656 944.96875 93.9375 C 944.578125 94.367188 944.171875 94.792969 943.761719 95.21875 C 942.855469 96.164062 941.925781 97.148438 941.109375 98.1875 L 941.089844 98.203125 C 939.828125 99.816406 938.511719 101.46875 937.378906 103.230469 C 937.304688 103.339844 937.210938 103.453125 937.136719 103.546875 C 937.101562 103.582031 937.0625 103.636719 937.027344 103.675781 C 936.785156 104.082031 936.542969 104.492188 936.285156 104.898438 C 935.503906 106.160156 934.707031 107.457031 934.132812 108.867188 C 934.058594 109.054688 934.019531 109.183594 934.039062 109.257812 C 934.078125 109.3125 934.167969 109.367188 934.390625 109.441406 C 937.195312 110.3125 938.957031 111.796875 939.808594 113.984375 C 940.332031 115.339844 940.386719 116.65625 939.941406 117.878906 C 939.828125 118.214844 939.867188 118.378906 940.105469 118.640625 C 940.777344 119.34375 941.277344 120.140625 941.648438 121.105469 L 941.777344 121.460938 Z M 941.222656 120.996094 " fill-opacity="1" fill-rule="nonzero"/></g><g clip-path="url(#91960dadb9)"><path fill="#e0e1e2" d="M 893.140625 139.519531 C 890.488281 139.519531 887.910156 139.222656 885.71875 138.925781 C 883.25 138.519531 881.230469 138.039062 879.355469 137.386719 L 879.410156 137.164062 C 880.933594 137.332031 882.101562 137.40625 883.214844 137.40625 C 883.976562 137.40625 884.660156 137.371094 885.347656 137.296875 L 885.386719 137.296875 L 885.421875 137.3125 C 885.941406 137.648438 886.554688 137.648438 887.148438 137.648438 C 887.242188 137.648438 887.351562 137.648438 887.445312 137.648438 C 888.335938 137.667969 889.058594 137.667969 889.710938 137.667969 C 891.898438 137.667969 893.679688 137.574219 895.3125 137.371094 C 899.96875 136.8125 905.371094 135.757812 910.066406 132.25 C 911.03125 131.527344 912.253906 130.527344 913.144531 129.171875 L 913.144531 129.136719 L 913.164062 129.097656 L 913.21875 129.023438 C 913.238281 129.007812 913.257812 128.96875 913.273438 128.949219 L 913.292969 128.933594 C 913.3125 128.894531 913.40625 128.800781 913.40625 128.800781 C 913.441406 128.746094 913.480469 128.710938 913.515625 128.652344 C 915.816406 125.277344 916.78125 121.625 916.394531 117.789062 L 916.394531 117.75 L 916.410156 117.730469 L 916.394531 117.714844 L 916.394531 117.675781 C 916.394531 117.082031 916.28125 116.46875 916.152344 115.894531 C 916.078125 115.507812 915.984375 115.117188 915.949219 114.726562 C 915.242188 112.59375 914.5 110.945312 913.609375 109.496094 C 912.21875 107.234375 910.4375 105.214844 908.191406 103.285156 C 905.019531 100.578125 901.363281 98.425781 897.816406 96.351562 L 897.039062 95.90625 C 896.5 95.589844 895.980469 95.273438 895.441406 94.960938 L 894.699219 94.515625 L 894.847656 94.421875 C 894.960938 94.347656 895.089844 94.292969 895.238281 94.292969 C 895.460938 94.292969 895.648438 94.402344 895.8125 94.476562 L 895.832031 94.496094 C 897.613281 95.421875 899.488281 96.21875 901.289062 96.980469 C 901.679688 97.148438 902.066406 97.3125 902.457031 97.480469 C 904.257812 98.242188 906.09375 99.003906 907.894531 99.707031 C 908.449219 99.929688 908.988281 100.152344 909.546875 100.375 C 909.621094 100.410156 909.730469 100.410156 909.84375 100.410156 C 909.898438 100.410156 909.953125 100.410156 910.007812 100.410156 L 910.082031 100.410156 L 910.101562 100.46875 C 910.214844 100.726562 910.453125 100.78125 910.714844 100.855469 C 910.898438 100.894531 911.085938 100.949219 911.253906 101.058594 C 911.253906 101.058594 913.144531 101.785156 913.792969 102.023438 C 913.851562 102.042969 913.925781 102.0625 914 102.082031 C 914.277344 102.15625 914.574219 102.246094 914.835938 102.414062 C 915.410156 102.617188 916.003906 102.820312 916.578125 103.042969 L 917.878906 103.546875 C 917.894531 103.546875 917.933594 103.5625 917.96875 103.5625 C 918.0625 103.582031 918.191406 103.582031 918.285156 103.695312 L 918.378906 103.710938 C 918.710938 103.785156 919.046875 103.878906 919.324219 104.121094 C 920.269531 104.34375 921.179688 104.695312 922.070312 105.027344 C 922.609375 105.234375 923.148438 105.4375 923.703125 105.621094 C 924.113281 105.753906 924.539062 105.917969 924.929688 106.066406 C 925.410156 106.253906 925.894531 106.4375 926.394531 106.585938 C 926.875 106.734375 927.136719 107.011719 927.265625 107.515625 C 927.636719 109.015625 928.175781 110.296875 928.917969 111.40625 L 928.9375 111.425781 C 928.9375 111.425781 928.957031 111.445312 928.957031 111.464844 L 928.957031 111.480469 C 928.957031 111.5 928.957031 111.519531 928.957031 111.539062 L 928.957031 111.554688 L 928.9375 111.59375 C 928.898438 111.667969 928.898438 111.703125 928.898438 111.703125 C 928.898438 111.703125 928.917969 111.742188 929.066406 111.761719 L 929.121094 111.761719 L 929.160156 111.796875 C 929.9375 113.003906 930.828125 114.28125 931.925781 115.285156 C 933.351562 116.617188 935.320312 118.214844 937.878906 118.808594 C 937.992188 118.824219 938.085938 118.84375 938.195312 118.863281 C 938.511719 118.898438 938.863281 118.957031 939.125 119.234375 L 939.289062 119.417969 L 939.050781 119.4375 C 937.046875 119.550781 935.320312 120.382812 933.910156 121.179688 C 933.796875 121.238281 933.707031 121.3125 933.613281 121.386719 C 933.390625 121.550781 933.167969 121.71875 932.851562 121.753906 C 932.257812 122.367188 931.609375 122.925781 930.976562 123.480469 C 930.570312 123.832031 930.160156 124.203125 929.753906 124.574219 L 929.402344 124.910156 C 928.4375 125.796875 927.453125 126.742188 926.394531 127.578125 C 923.796875 129.65625 921.347656 131.34375 918.898438 132.734375 C 914.925781 134.996094 910.492188 136.738281 905.6875 137.90625 C 903.644531 138.410156 901.585938 138.78125 899.5625 139.019531 C 899.023438 139.058594 898.503906 139.113281 897.964844 139.167969 C 896.835938 139.28125 895.664062 139.390625 894.496094 139.429688 C 894.070312 139.519531 893.605469 139.519531 893.140625 139.519531 Z M 893.140625 139.519531 " fill-opacity="1" fill-rule="nonzero"/></g></svg>