<svg xmlns="http://www.w3.org/2000/svg" xmlns:xlink="http://www.w3.org/1999/xlink" width="1366" zoomAndPan="magnify" viewBox="0 0 1024.5 576" height="768" preserveAspectRatio="xMidYMid meet" version="1.0"><defs><clipPath id="dacf69da41"><path d="M 0 221 L 1024 221 L 1024 575.859375 L 0 575.859375 Z M 0 221 " clip-rule="nonzero"/></clipPath><clipPath id="fac03a9d54"><path d="M 0 414 L 532 414 L 532 575.859375 L 0 575.859375 Z M 0 414 " clip-rule="nonzero"/></clipPath><clipPath id="b331e9a7f6"><path d="M 531 414 L 951 414 L 951 575.859375 L 531 575.859375 Z M 531 414 " clip-rule="nonzero"/></clipPath><clipPath id="52987d2a82"><path d="M 323 504 L 614 504 L 614 575.859375 L 323 575.859375 Z M 323 504 " clip-rule="nonzero"/></clipPath></defs><g clip-path="url(#dacf69da41)"><path fill="#2bc2af" d="M -18.601562 575.242188 C -17.753906 574.367188 -13.371094 550.265625 -13.015625 547.707031 C -11.691406 538.542969 -9.320312 529.53125 -6.617188 520.757812 C 0.277344 498.59375 9.835938 476.800781 21.761719 457.34375 C 40.40625 426.914062 68.390625 405.882812 90.410156 378.703125 C 117.070312 345.761719 136.246094 306.773438 160.296875 271.730469 C 172.246094 254.347656 193.832031 219.207031 218.238281 221.664062 C 257.242188 225.59375 274.382812 270.554688 296.621094 298.109375 C 308.746094 313.117188 325.808594 321.890625 338.527344 335.777344 C 351.246094 321.890625 368.308594 313.117188 380.433594 298.109375 C 402.671875 270.554688 419.804688 225.59375 458.820312 221.664062 C 483.214844 219.207031 504.804688 254.347656 516.742188 271.730469 C 540.8125 306.773438 559.988281 345.761719 586.652344 378.703125 C 599.25 394.261719 613.808594 407.808594 627.453125 422.253906 C 635.824219 415.644531 643.964844 408.78125 650.242188 399.707031 C 662.714844 381.660156 666.640625 358.199219 679.945312 340.765625 C 692.878906 323.816406 712.523438 314.835938 726.027344 298.109375 C 748.273438 270.554688 765.410156 225.59375 804.425781 221.664062 C 828.816406 219.207031 850.410156 254.347656 862.347656 271.730469 C 886.410156 306.773438 905.589844 345.761719 932.253906 378.703125 C 954.257812 405.882812 982.253906 426.914062 1000.898438 457.34375 C 1012.820312 476.800781 1022.378906 498.59375 1029.261719 520.757812 C 1031.984375 529.53125 1034.34375 538.542969 1035.667969 547.707031 C 1036.035156 550.265625 1040.402344 574.367188 1041.265625 575.242188 L 695.402344 574.648438 C 695.507812 574.972656 695.59375 575.175781 695.660156 575.242188 L 611.582031 575.097656 C 612.089844 575.304688 611.960938 575.28125 611.425781 575.097656 L 412.1875 574.753906 C 410.609375 575.335938 410.054688 575.472656 411.953125 574.753906 L 338.527344 574.628906 L 65.625 575.097656 C 65.089844 575.28125 64.953125 575.304688 65.464844 575.097656 Z M 1041.265625 575.242188 L 1041.34375 575.242188 C 1041.324219 575.277344 1041.296875 575.277344 1041.265625 575.242188 Z M -18.601562 575.242188 C -18.640625 575.277344 -18.660156 575.277344 -18.683594 575.242188 Z M 695.660156 575.242188 L 695.742188 575.242188 C 695.71875 575.277344 695.695312 575.277344 695.660156 575.242188 Z M 695.660156 575.242188 " fill-opacity="1" fill-rule="evenodd"/></g><g clip-path="url(#fac03a9d54)"><path fill="#31e6cf" d="M -18.664062 575.25 L 531.511719 575.25 C 536.21875 576.027344 474.039062 547.214844 461.082031 548.085938 C 442.789062 549.320312 418.199219 542.328125 406.253906 534.996094 C 396.953125 529.292969 389.855469 522.597656 380.410156 516.945312 C 367.65625 509.304688 353.246094 502.582031 340.539062 494.933594 C 319.113281 482.023438 301.3125 466.707031 286.222656 451.246094 C 277.253906 442.058594 269.324219 432.535156 260.210938 423.394531 C 256.867188 420.027344 251.863281 414.78125 244.160156 414.238281 C 232.546875 413.414062 223.367188 424.140625 218.875 428.664062 C 201.40625 446.238281 188.425781 464.578125 169.941406 481.914062 C 157.425781 493.648438 121.746094 491.441406 102.882812 501.277344 C 85.816406 510.175781 86.839844 524.164062 72.621094 532.277344 C 63.605469 537.429688 50.101562 535.746094 40.429688 539.910156 C 27.1875 545.605469 29.484375 555.601562 18.886719 561.75 C 12.085938 565.703125 -9.777344 570.222656 -18.664062 575.25 Z M -18.664062 575.25 " fill-opacity="1" fill-rule="evenodd"/></g><g clip-path="url(#b331e9a7f6)"><path fill="#31e6cf" d="M 950.890625 575.25 L 531.929688 575.25 C 528.347656 576.027344 575.695312 547.214844 585.5625 548.085938 C 599.492188 549.320312 618.21875 542.328125 627.316406 534.996094 C 634.398438 529.292969 639.800781 522.597656 646.996094 516.945312 C 656.707031 509.304688 667.679688 502.582031 677.355469 494.933594 C 693.671875 482.023438 707.230469 466.707031 718.71875 451.246094 C 725.546875 442.058594 731.585938 432.535156 738.523438 423.394531 C 741.074219 420.027344 744.882812 414.78125 750.75 414.238281 C 759.59375 413.414062 766.585938 424.140625 770.003906 428.664062 C 783.308594 446.238281 793.191406 464.578125 807.265625 481.914062 C 816.796875 493.648438 843.96875 491.441406 858.332031 501.277344 C 871.328125 510.175781 870.546875 524.164062 881.375 532.277344 C 888.242188 537.429688 898.527344 535.746094 905.890625 539.910156 C 915.972656 545.605469 914.222656 555.601562 922.292969 561.75 C 927.472656 565.703125 944.125 570.222656 950.890625 575.25 Z M 950.890625 575.25 " fill-opacity="1" fill-rule="evenodd"/></g><g clip-path="url(#52987d2a82)"><path fill="#31e6cf" d="M 613.304688 575.257812 C 613.023438 575.445312 610.871094 570.304688 610.695312 569.777344 C 610.085938 567.949219 609.003906 566.15625 607.75 564.410156 C 604.585938 559.996094 600.1875 555.65625 594.707031 551.78125 C 586.132812 545.722656 573.261719 541.535156 563.140625 536.125 C 550.878906 529.566406 542.058594 521.800781 530.992188 514.824219 C 525.503906 511.363281 515.574219 504.367188 504.359375 504.855469 C 486.417969 505.636719 478.535156 514.589844 468.308594 520.074219 C 462.097656 523.40625 453.0625 525.195312 447.113281 528.570312 C 440.996094 532.039062 439.191406 536.710938 433.457031 540.304688 C 427.972656 543.738281 419.390625 545.582031 412.878906 548.507812 C 407.40625 550.964844 403.621094 554.242188 397.371094 556.304688 C 390.421875 558.597656 379.589844 561.082031 371.316406 562.125 C 368.210938 562.515625 364.292969 561.609375 361.421875 562.320312 C 356.183594 563.609375 352.886719 566.0625 346.835938 567.246094 C 338.632812 568.851562 335.15625 571.644531 328.660156 574.199219 C 327.316406 574.726562 320.535156 575.6875 324.621094 575.042969 Z M 613.304688 575.257812 " fill-opacity="1" fill-rule="evenodd"/></g></svg>