<svg xmlns="http://www.w3.org/2000/svg" xmlns:xlink="http://www.w3.org/1999/xlink" width="1366" zoomAndPan="magnify" viewBox="0 0 1024.5 576" height="768" preserveAspectRatio="xMidYMid meet" version="1.0"><defs><clipPath id="8f0b5b7509"><path d="M 120 78.707031 L 124 78.707031 L 124 96 L 120 96 Z M 120 78.707031 " clip-rule="nonzero"/></clipPath><clipPath id="55d8ccfefe"><path d="M 169 141 L 185.757812 141 L 185.757812 145 L 169 145 Z M 169 141 " clip-rule="nonzero"/></clipPath><clipPath id="5a260c87b3"><path d="M 120 190 L 124 190 L 124 206.894531 L 120 206.894531 Z M 120 190 " clip-rule="nonzero"/></clipPath><clipPath id="de8fb444dc"><path d="M 57.570312 141 L 74 141 L 74 145 L 57.570312 145 Z M 57.570312 141 " clip-rule="nonzero"/></clipPath></defs><path fill="#368498" d="M 132.714844 185.796875 C 132.414062 185.796875 132.113281 185.722656 131.890625 185.574219 C 128.816406 183.546875 125.289062 182.421875 121.539062 182.421875 C 117.867188 182.421875 114.339844 183.546875 111.265625 185.574219 C 110.890625 185.796875 110.441406 185.871094 109.992188 185.796875 C 109.617188 185.648438 109.242188 185.347656 109.089844 184.972656 C 107.441406 181.671875 104.890625 178.972656 101.667969 177.171875 C 98.519531 175.300781 94.84375 174.472656 91.167969 174.699219 C 90.792969 174.699219 90.34375 174.550781 90.042969 174.25 C 89.742188 173.949219 89.59375 173.5 89.59375 173.125 C 89.820312 169.449219 88.992188 165.773438 87.117188 162.625 C 85.320312 159.402344 82.542969 156.851562 79.320312 155.199219 C 78.945312 155.050781 78.644531 154.675781 78.496094 154.300781 C 78.417969 153.851562 78.496094 153.402344 78.71875 153.027344 C 80.746094 149.953125 81.792969 146.425781 81.792969 142.675781 C 81.792969 139.003906 80.746094 135.476562 78.71875 132.402344 C 78.417969 132.027344 78.417969 131.578125 78.496094 131.128906 C 78.570312 130.753906 78.871094 130.378906 79.246094 130.230469 C 82.542969 128.578125 85.242188 126.027344 87.117188 122.804688 C 88.992188 119.65625 89.820312 115.980469 89.59375 112.304688 C 89.59375 111.929688 89.742188 111.480469 90.042969 111.179688 C 90.34375 110.878906 90.71875 110.730469 91.167969 110.730469 C 94.84375 110.957031 98.441406 110.128906 101.667969 108.253906 C 104.890625 106.457031 107.441406 103.679688 109.015625 100.457031 C 109.242188 100.082031 109.617188 99.78125 109.992188 99.632812 C 110.441406 99.558594 110.816406 99.632812 111.191406 99.855469 C 114.339844 101.882812 117.867188 102.929688 121.539062 102.929688 C 125.289062 102.929688 128.816406 101.882812 131.890625 99.855469 C 132.265625 99.558594 132.714844 99.558594 133.089844 99.632812 C 133.539062 99.707031 133.914062 100.007812 134.0625 100.382812 C 135.714844 103.679688 138.261719 106.382812 141.414062 108.253906 C 144.636719 110.128906 148.238281 110.957031 151.914062 110.730469 C 152.363281 110.730469 152.8125 110.878906 153.113281 111.179688 C 153.410156 111.480469 153.5625 111.855469 153.488281 112.304688 C 153.261719 115.980469 154.160156 119.578125 155.960938 122.804688 C 157.835938 126.027344 160.535156 128.578125 163.835938 130.152344 C 164.210938 130.378906 164.511719 130.753906 164.585938 131.128906 C 164.734375 131.578125 164.660156 131.953125 164.4375 132.328125 C 162.410156 135.476562 161.285156 139.003906 161.285156 142.675781 C 161.285156 146.425781 162.410156 149.953125 164.4375 153.027344 C 164.660156 153.402344 164.734375 153.851562 164.660156 154.226562 C 164.511719 154.675781 164.210938 155.050781 163.835938 155.199219 C 160.535156 156.851562 157.835938 159.402344 156.035156 162.550781 C 154.160156 165.773438 153.335938 169.375 153.5625 173.050781 C 153.5625 173.5 153.410156 173.949219 153.113281 174.25 C 152.8125 174.550781 152.363281 174.699219 151.988281 174.625 C 148.3125 174.398438 144.636719 175.300781 141.488281 177.097656 C 138.261719 178.972656 135.714844 181.671875 134.0625 184.972656 C 133.914062 185.347656 133.539062 185.648438 133.164062 185.722656 C 132.9375 185.796875 132.863281 185.796875 132.714844 185.796875 Z M 121.539062 171.625 C 105.640625 171.625 92.667969 158.652344 92.667969 142.675781 C 92.667969 126.777344 105.640625 113.804688 121.539062 113.804688 C 137.511719 113.804688 150.488281 126.777344 150.488281 142.675781 C 150.488281 158.652344 137.511719 171.625 121.539062 171.625 Z M 121.539062 116.804688 C 107.292969 116.804688 95.667969 128.429688 95.667969 142.675781 C 95.667969 157 107.292969 168.625 121.539062 168.625 C 135.863281 168.625 147.488281 157 147.488281 142.675781 C 147.488281 128.429688 135.863281 116.804688 121.539062 116.804688 Z M 121.539062 116.804688 " fill-opacity="1" fill-rule="evenodd"/><g clip-path="url(#8f0b5b7509)"><path fill="#31e6cf" d="M 121.539062 95.132812 C 120.714844 95.132812 120.039062 94.457031 120.039062 93.632812 L 120.039062 80.207031 C 120.039062 79.382812 120.714844 78.707031 121.539062 78.707031 C 122.363281 78.707031 123.039062 79.382812 123.039062 80.207031 L 123.039062 93.632812 C 123.039062 94.457031 122.363281 95.132812 121.539062 95.132812 Z M 121.539062 95.132812 " fill-opacity="1" fill-rule="evenodd"/></g><path fill="#31e6cf" d="M 146.136719 101.65625 C 145.835938 101.65625 145.613281 101.582031 145.386719 101.507812 C 144.636719 101.054688 144.414062 100.15625 144.789062 99.40625 L 151.539062 87.859375 C 151.914062 87.109375 152.8125 86.882812 153.5625 87.257812 C 154.3125 87.707031 154.535156 88.609375 154.085938 89.359375 L 147.414062 100.90625 C 147.113281 101.429688 146.664062 101.65625 146.136719 101.65625 Z M 146.136719 101.65625 " fill-opacity="1" fill-rule="evenodd"/><path fill="#31e6cf" d="M 164.0625 119.65625 C 163.535156 119.65625 163.085938 119.355469 162.785156 118.90625 C 162.335938 118.15625 162.636719 117.253906 163.3125 116.878906 L 174.933594 110.128906 C 175.683594 109.753906 176.585938 109.980469 176.960938 110.730469 C 177.410156 111.40625 177.183594 112.304688 176.433594 112.753906 L 164.8125 119.429688 C 164.585938 119.578125 164.359375 119.65625 164.0625 119.65625 Z M 164.0625 119.65625 " fill-opacity="1" fill-rule="evenodd"/><g clip-path="url(#55d8ccfefe)"><path fill="#31e6cf" d="M 184.082031 144.175781 L 170.660156 144.175781 C 169.835938 144.175781 169.160156 143.503906 169.160156 142.675781 C 169.160156 141.851562 169.835938 141.175781 170.660156 141.175781 L 184.082031 141.175781 C 184.910156 141.175781 185.582031 141.851562 185.582031 142.675781 C 185.582031 143.503906 184.910156 144.175781 184.082031 144.175781 Z M 184.082031 144.175781 " fill-opacity="1" fill-rule="evenodd"/></g><path fill="#31e6cf" d="M 175.683594 175.449219 C 175.460938 175.449219 175.160156 175.375 174.933594 175.222656 L 163.3125 168.550781 C 162.636719 168.101562 162.335938 167.199219 162.785156 166.523438 C 163.234375 165.773438 164.136719 165.550781 164.8125 165.925781 L 176.433594 172.675781 C 177.183594 173.050781 177.410156 173.949219 176.960938 174.699219 C 176.734375 175.148438 176.210938 175.449219 175.683594 175.449219 Z M 175.683594 175.449219 " fill-opacity="1" fill-rule="evenodd"/><path fill="#31e6cf" d="M 152.8125 198.320312 C 152.285156 198.320312 151.761719 198.023438 151.539062 197.570312 L 144.789062 185.949219 C 144.414062 185.273438 144.636719 184.371094 145.386719 183.921875 C 146.0625 183.472656 146.960938 183.773438 147.414062 184.449219 L 154.085938 196.070312 C 154.535156 196.820312 154.3125 197.722656 153.5625 198.097656 C 153.335938 198.246094 153.035156 198.320312 152.8125 198.320312 Z M 152.8125 198.320312 " fill-opacity="1" fill-rule="evenodd"/><g clip-path="url(#5a260c87b3)"><path fill="#31e6cf" d="M 121.539062 206.71875 C 120.714844 206.71875 120.039062 206.046875 120.039062 205.222656 L 120.039062 191.796875 C 120.039062 190.972656 120.714844 190.296875 121.539062 190.296875 C 122.363281 190.296875 123.039062 190.972656 123.039062 191.796875 L 123.039062 205.222656 C 123.039062 206.046875 122.363281 206.71875 121.539062 206.71875 Z M 121.539062 206.71875 " fill-opacity="1" fill-rule="evenodd"/></g><path fill="#31e6cf" d="M 90.34375 198.320312 C 90.042969 198.320312 89.820312 198.246094 89.59375 198.097656 C 88.84375 197.722656 88.617188 196.820312 88.992188 196.070312 L 95.742188 184.449219 C 96.117188 183.773438 97.019531 183.472656 97.769531 183.921875 C 98.519531 184.371094 98.742188 185.273438 98.292969 185.949219 L 91.617188 197.570312 C 91.320312 198.023438 90.867188 198.320312 90.34375 198.320312 Z M 90.34375 198.320312 " fill-opacity="1" fill-rule="evenodd"/><path fill="#31e6cf" d="M 67.472656 175.449219 C 66.945312 175.449219 66.421875 175.148438 66.121094 174.699219 C 65.746094 173.949219 65.972656 173.050781 66.722656 172.675781 L 78.269531 165.925781 C 79.019531 165.550781 79.917969 165.773438 80.371094 166.523438 C 80.746094 167.199219 80.519531 168.101562 79.769531 168.550781 L 68.222656 175.222656 C 67.921875 175.375 67.695312 175.449219 67.472656 175.449219 Z M 67.472656 175.449219 " fill-opacity="1" fill-rule="evenodd"/><g clip-path="url(#de8fb444dc)"><path fill="#31e6cf" d="M 72.496094 144.175781 L 59.070312 144.175781 C 58.246094 144.175781 57.570312 143.503906 57.570312 142.675781 C 57.570312 141.851562 58.246094 141.175781 59.070312 141.175781 L 72.496094 141.175781 C 73.320312 141.175781 73.996094 141.851562 73.996094 142.675781 C 73.996094 143.503906 73.320312 144.175781 72.496094 144.175781 Z M 72.496094 144.175781 " fill-opacity="1" fill-rule="evenodd"/></g><path fill="#31e6cf" d="M 79.019531 119.65625 C 78.792969 119.65625 78.570312 119.578125 78.269531 119.429688 L 66.722656 112.753906 C 65.972656 112.304688 65.746094 111.40625 66.121094 110.730469 C 66.570312 109.980469 67.472656 109.753906 68.222656 110.128906 L 79.769531 116.878906 C 80.519531 117.253906 80.746094 118.15625 80.371094 118.90625 C 80.070312 119.355469 79.542969 119.65625 79.019531 119.65625 Z M 79.019531 119.65625 " fill-opacity="1" fill-rule="evenodd"/><path fill="#31e6cf" d="M 97.019531 101.65625 C 96.492188 101.65625 95.96875 101.429688 95.742188 100.90625 L 88.992188 89.359375 C 88.617188 88.609375 88.84375 87.707031 89.59375 87.257812 C 90.269531 86.882812 91.167969 87.109375 91.617188 87.859375 L 98.292969 99.40625 C 98.742188 100.15625 98.519531 101.054688 97.769531 101.507812 C 97.542969 101.582031 97.242188 101.65625 97.019531 101.65625 Z M 97.019531 101.65625 " fill-opacity="1" fill-rule="evenodd"/></svg>